<mxfile modified="2023-11-01T12:52:57.387Z" host="Electron" agent="Mozilla/5.0 (Macintosh; Intel Mac OS X 10_15_7) AppleWebKit/537.36 (KHTML, like Gecko) draw.io/22.0.3 Chrome/114.0.5735.289 Electron/25.8.4 Safari/537.36" etag="INJ_kWZ-6ihWMV0kJ01Z" version="22.0.3" type="device">
  <diagram id="Ht1M8jgEwFfnCIfOTk4-" name="Page-1">
    <mxGraphModel dx="1434" dy="854" grid="1" gridSize="10" guides="1" tooltips="1" connect="1" arrows="1" fold="1" page="1" pageScale="1" pageWidth="1169" pageHeight="827" math="0" shadow="0">
      <root>
        <mxCell id="0" />
        <mxCell id="1" parent="0" />
        <mxCell id="UEzPUAAOIrF-is8g5C7q-205" value="AWS Cloud" style="points=[[0,0],[0.25,0],[0.5,0],[0.75,0],[1,0],[1,0.25],[1,0.5],[1,0.75],[1,1],[0.75,1],[0.5,1],[0.25,1],[0,1],[0,0.75],[0,0.5],[0,0.25]];outlineConnect=0;gradientColor=none;html=1;whiteSpace=wrap;fontSize=12;fontStyle=0;shape=mxgraph.aws4.group;grIcon=mxgraph.aws4.group_aws_cloud_alt;strokeColor=#232F3E;fillColor=none;verticalAlign=top;align=left;spacingLeft=30;fontColor=#232F3E;dashed=0;labelBackgroundColor=#ffffff;container=1;pointerEvents=0;collapsible=0;recursiveResize=0;" parent="1" vertex="1">
          <mxGeometry x="30" y="40" width="400" height="680" as="geometry" />
        </mxCell>
        <mxCell id="HuIu8MXGCtXhuZYJzf6O-11" value="Region - us-east-2" style="sketch=0;outlineConnect=0;gradientColor=none;html=1;whiteSpace=wrap;fontSize=12;fontStyle=0;shape=mxgraph.aws4.group;grIcon=mxgraph.aws4.group_region;strokeColor=#879196;fillColor=none;verticalAlign=top;align=left;spacingLeft=30;fontColor=#879196;dashed=1;" parent="UEzPUAAOIrF-is8g5C7q-205" vertex="1">
          <mxGeometry x="10" y="30" width="360" height="640" as="geometry" />
        </mxCell>
        <mxCell id="HuIu8MXGCtXhuZYJzf6O-3" value="VPC - default&lt;br&gt;172.31.0.0/16" style="sketch=0;outlineConnect=0;gradientColor=none;html=1;whiteSpace=wrap;fontSize=12;fontStyle=0;shape=mxgraph.aws4.group;grIcon=mxgraph.aws4.group_vpc;strokeColor=#879196;fillColor=none;verticalAlign=top;align=left;spacingLeft=30;fontColor=#879196;dashed=0;" parent="UEzPUAAOIrF-is8g5C7q-205" vertex="1">
          <mxGeometry x="40" y="70" width="160" height="130" as="geometry" />
        </mxCell>
        <mxCell id="HuIu8MXGCtXhuZYJzf6O-28" style="edgeStyle=orthogonalEdgeStyle;rounded=0;orthogonalLoop=1;jettySize=auto;html=1;exitX=0.25;exitY=0;exitDx=0;exitDy=0;exitPerimeter=0;startArrow=classic;startFill=1;" parent="UEzPUAAOIrF-is8g5C7q-205" source="HuIu8MXGCtXhuZYJzf6O-5" target="HuIu8MXGCtXhuZYJzf6O-21" edge="1">
          <mxGeometry relative="1" as="geometry">
            <Array as="points">
              <mxPoint x="289" y="150" />
            </Array>
          </mxGeometry>
        </mxCell>
        <mxCell id="HuIu8MXGCtXhuZYJzf6O-29" style="edgeStyle=orthogonalEdgeStyle;rounded=0;orthogonalLoop=1;jettySize=auto;html=1;exitX=0;exitY=0.25;exitDx=0;exitDy=0;exitPerimeter=0;startArrow=classic;startFill=1;" parent="UEzPUAAOIrF-is8g5C7q-205" source="HuIu8MXGCtXhuZYJzf6O-5" target="HuIu8MXGCtXhuZYJzf6O-22" edge="1">
          <mxGeometry relative="1" as="geometry" />
        </mxCell>
        <mxCell id="HuIu8MXGCtXhuZYJzf6O-30" style="edgeStyle=orthogonalEdgeStyle;rounded=0;orthogonalLoop=1;jettySize=auto;html=1;exitX=0;exitY=0.5;exitDx=0;exitDy=0;exitPerimeter=0;startArrow=classic;startFill=1;" parent="UEzPUAAOIrF-is8g5C7q-205" source="HuIu8MXGCtXhuZYJzf6O-5" target="HuIu8MXGCtXhuZYJzf6O-23" edge="1">
          <mxGeometry relative="1" as="geometry">
            <Array as="points">
              <mxPoint x="230" y="335" />
              <mxPoint x="230" y="450" />
            </Array>
          </mxGeometry>
        </mxCell>
        <mxCell id="HuIu8MXGCtXhuZYJzf6O-31" style="edgeStyle=orthogonalEdgeStyle;rounded=0;orthogonalLoop=1;jettySize=auto;html=1;exitX=0;exitY=0.75;exitDx=0;exitDy=0;exitPerimeter=0;startArrow=classic;startFill=1;" parent="UEzPUAAOIrF-is8g5C7q-205" source="HuIu8MXGCtXhuZYJzf6O-5" target="HuIu8MXGCtXhuZYJzf6O-25" edge="1">
          <mxGeometry relative="1" as="geometry">
            <Array as="points">
              <mxPoint x="250" y="355" />
              <mxPoint x="250" y="600" />
            </Array>
          </mxGeometry>
        </mxCell>
        <mxCell id="HuIu8MXGCtXhuZYJzf6O-5" value="" style="sketch=0;points=[[0,0,0],[0.25,0,0],[0.5,0,0],[0.75,0,0],[1,0,0],[0,1,0],[0.25,1,0],[0.5,1,0],[0.75,1,0],[1,1,0],[0,0.25,0],[0,0.5,0],[0,0.75,0],[1,0.25,0],[1,0.5,0],[1,0.75,0]];outlineConnect=0;fontColor=#232F3E;fillColor=#8C4FFF;strokeColor=#ffffff;dashed=0;verticalLabelPosition=bottom;verticalAlign=top;align=center;html=1;fontSize=12;fontStyle=0;aspect=fixed;shape=mxgraph.aws4.resourceIcon;resIcon=mxgraph.aws4.transit_gateway;" parent="UEzPUAAOIrF-is8g5C7q-205" vertex="1">
          <mxGeometry x="269" y="296" width="78" height="78" as="geometry" />
        </mxCell>
        <mxCell id="HuIu8MXGCtXhuZYJzf6O-6" value="VPC - hybrid-poc&lt;br&gt;10.64.0.0/16" style="sketch=0;outlineConnect=0;gradientColor=none;html=1;whiteSpace=wrap;fontSize=12;fontStyle=0;shape=mxgraph.aws4.group;grIcon=mxgraph.aws4.group_vpc;strokeColor=#879196;fillColor=none;verticalAlign=top;align=left;spacingLeft=30;fontColor=#879196;dashed=0;" parent="UEzPUAAOIrF-is8g5C7q-205" vertex="1">
          <mxGeometry x="40" y="220" width="160" height="130" as="geometry" />
        </mxCell>
        <mxCell id="HuIu8MXGCtXhuZYJzf6O-7" value="VPC - openshift-ipi&lt;br&gt;10.0.0.0/16" style="sketch=0;outlineConnect=0;gradientColor=none;html=1;whiteSpace=wrap;fontSize=12;fontStyle=0;shape=mxgraph.aws4.group;grIcon=mxgraph.aws4.group_vpc;strokeColor=#879196;fillColor=none;verticalAlign=top;align=left;spacingLeft=30;fontColor=#879196;dashed=0;" parent="UEzPUAAOIrF-is8g5C7q-205" vertex="1">
          <mxGeometry x="40" y="373.5" width="160" height="130" as="geometry" />
        </mxCell>
        <mxCell id="HuIu8MXGCtXhuZYJzf6O-21" value="" style="sketch=0;outlineConnect=0;fontColor=#232F3E;gradientColor=none;fillColor=#8C4FFF;strokeColor=none;dashed=0;verticalLabelPosition=bottom;verticalAlign=top;align=center;html=1;fontSize=12;fontStyle=0;aspect=fixed;pointerEvents=1;shape=mxgraph.aws4.transit_gateway_attachment;" parent="UEzPUAAOIrF-is8g5C7q-205" vertex="1">
          <mxGeometry x="150" y="130" width="40" height="40" as="geometry" />
        </mxCell>
        <mxCell id="HuIu8MXGCtXhuZYJzf6O-22" value="" style="sketch=0;outlineConnect=0;fontColor=#232F3E;gradientColor=none;fillColor=#8C4FFF;strokeColor=none;dashed=0;verticalLabelPosition=bottom;verticalAlign=top;align=center;html=1;fontSize=12;fontStyle=0;aspect=fixed;pointerEvents=1;shape=mxgraph.aws4.transit_gateway_attachment;" parent="UEzPUAAOIrF-is8g5C7q-205" vertex="1">
          <mxGeometry x="150" y="280" width="40" height="40" as="geometry" />
        </mxCell>
        <mxCell id="HuIu8MXGCtXhuZYJzf6O-23" value="" style="sketch=0;outlineConnect=0;fontColor=#232F3E;gradientColor=none;fillColor=#8C4FFF;strokeColor=none;dashed=0;verticalLabelPosition=bottom;verticalAlign=top;align=center;html=1;fontSize=12;fontStyle=0;aspect=fixed;pointerEvents=1;shape=mxgraph.aws4.transit_gateway_attachment;" parent="UEzPUAAOIrF-is8g5C7q-205" vertex="1">
          <mxGeometry x="150" y="430" width="40" height="40" as="geometry" />
        </mxCell>
        <mxCell id="HuIu8MXGCtXhuZYJzf6O-24" value="VPC - poceks&lt;br&gt;10.1.0.0/16" style="sketch=0;outlineConnect=0;gradientColor=none;html=1;whiteSpace=wrap;fontSize=12;fontStyle=0;shape=mxgraph.aws4.group;grIcon=mxgraph.aws4.group_vpc;strokeColor=#879196;fillColor=none;verticalAlign=top;align=left;spacingLeft=30;fontColor=#879196;dashed=0;" parent="UEzPUAAOIrF-is8g5C7q-205" vertex="1">
          <mxGeometry x="40" y="520" width="160" height="130" as="geometry" />
        </mxCell>
        <mxCell id="HuIu8MXGCtXhuZYJzf6O-25" value="" style="sketch=0;outlineConnect=0;fontColor=#232F3E;gradientColor=none;fillColor=#8C4FFF;strokeColor=none;dashed=0;verticalLabelPosition=bottom;verticalAlign=top;align=center;html=1;fontSize=12;fontStyle=0;aspect=fixed;pointerEvents=1;shape=mxgraph.aws4.transit_gateway_attachment;" parent="UEzPUAAOIrF-is8g5C7q-205" vertex="1">
          <mxGeometry x="150" y="580" width="40" height="40" as="geometry" />
        </mxCell>
        <mxCell id="HuIu8MXGCtXhuZYJzf6O-34" value="" style="sketch=0;outlineConnect=0;fontColor=#232F3E;gradientColor=none;fillColor=#8C4FFF;strokeColor=none;dashed=0;verticalLabelPosition=bottom;verticalAlign=top;align=center;html=1;fontSize=12;fontStyle=0;aspect=fixed;pointerEvents=1;shape=mxgraph.aws4.route_table;" parent="UEzPUAAOIrF-is8g5C7q-205" vertex="1">
          <mxGeometry x="274.13" y="380" width="67.74" height="66" as="geometry" />
        </mxCell>
        <mxCell id="HuIu8MXGCtXhuZYJzf6O-1" value="HomeLab&lt;br&gt;Matrix.lab / linuxrevolution.com" style="points=[[0,0],[0.25,0],[0.5,0],[0.75,0],[1,0],[1,0.25],[1,0.5],[1,0.75],[1,1],[0.75,1],[0.5,1],[0.25,1],[0,1],[0,0.75],[0,0.5],[0,0.25]];outlineConnect=0;gradientColor=none;html=1;whiteSpace=wrap;fontSize=12;fontStyle=0;container=1;pointerEvents=0;collapsible=0;recursiveResize=0;shape=mxgraph.aws4.group;grIcon=mxgraph.aws4.group_corporate_data_center;strokeColor=#5A6C86;fillColor=none;verticalAlign=top;align=left;spacingLeft=30;fontColor=#5A6C86;dashed=0;" parent="1" vertex="1">
          <mxGeometry x="810" y="40" width="320" height="460" as="geometry" />
        </mxCell>
        <mxCell id="HuIu8MXGCtXhuZYJzf6O-8" value="Subnet - DMZ&lt;br&gt;10.10.10.0/23" style="sketch=0;outlineConnect=0;gradientColor=none;html=1;whiteSpace=wrap;fontSize=12;fontStyle=0;shape=mxgraph.aws4.group;grIcon=mxgraph.aws4.group_subnet;strokeColor=#879196;fillColor=none;verticalAlign=top;align=left;spacingLeft=30;fontColor=#879196;dashed=0;" parent="HuIu8MXGCtXhuZYJzf6O-1" vertex="1">
          <mxGeometry x="60" y="40" width="180" height="130" as="geometry" />
        </mxCell>
        <mxCell id="HuIu8MXGCtXhuZYJzf6O-9" value="Subnet - internal&lt;br&gt;192.168.0.0/22" style="sketch=0;outlineConnect=0;gradientColor=none;html=1;whiteSpace=wrap;fontSize=12;fontStyle=0;shape=mxgraph.aws4.group;grIcon=mxgraph.aws4.group_subnet;strokeColor=#879196;fillColor=none;verticalAlign=top;align=left;spacingLeft=30;fontColor=#879196;dashed=0;" parent="HuIu8MXGCtXhuZYJzf6O-1" vertex="1">
          <mxGeometry x="60" y="290" width="180" height="130" as="geometry" />
        </mxCell>
        <mxCell id="HuIu8MXGCtXhuZYJzf6O-16" value="laptop" style="image;aspect=fixed;perimeter=ellipsePerimeter;html=1;align=center;shadow=0;dashed=0;spacingTop=3;image=img/lib/active_directory/laptop_client.svg;" parent="HuIu8MXGCtXhuZYJzf6O-1" vertex="1">
          <mxGeometry x="88" y="330" width="45" height="50" as="geometry" />
        </mxCell>
        <mxCell id="HuIu8MXGCtXhuZYJzf6O-17" value="vSphere 7.x" style="image;aspect=fixed;perimeter=ellipsePerimeter;html=1;align=center;shadow=0;dashed=0;spacingTop=3;image=img/lib/active_directory/server_farm.svg;" parent="HuIu8MXGCtXhuZYJzf6O-1" vertex="1">
          <mxGeometry x="88" y="80" width="50" height="50" as="geometry" />
        </mxCell>
        <mxCell id="HuIu8MXGCtXhuZYJzf6O-18" value="freeNAS" style="image;points=[];aspect=fixed;html=1;align=center;shadow=0;dashed=0;image=img/lib/allied_telesis/storage/Datacenter_Server_Storage_Unit_Large.svg;" parent="HuIu8MXGCtXhuZYJzf6O-1" vertex="1">
          <mxGeometry x="170" y="80" width="48.48" height="50" as="geometry" />
        </mxCell>
        <mxCell id="HuIu8MXGCtXhuZYJzf6O-19" value="Amazon Echo" style="outlineConnect=0;dashed=0;verticalLabelPosition=bottom;verticalAlign=top;align=center;html=1;shape=mxgraph.aws3.echo;fillColor=#205B99;gradientColor=none;" parent="HuIu8MXGCtXhuZYJzf6O-1" vertex="1">
          <mxGeometry x="180.74" y="331" width="27" height="43" as="geometry" />
        </mxCell>
        <mxCell id="HuIu8MXGCtXhuZYJzf6O-13" style="edgeStyle=orthogonalEdgeStyle;rounded=0;orthogonalLoop=1;jettySize=auto;html=1;exitX=1;exitY=0.7;exitDx=0;exitDy=0;exitPerimeter=0;endArrow=none;endFill=0;" parent="1" source="HuIu8MXGCtXhuZYJzf6O-12" target="HuIu8MXGCtXhuZYJzf6O-10" edge="1">
          <mxGeometry relative="1" as="geometry" />
        </mxCell>
        <mxCell id="HuIu8MXGCtXhuZYJzf6O-12" value="" style="outlineConnect=0;dashed=0;verticalLabelPosition=bottom;verticalAlign=top;align=center;html=1;shape=mxgraph.aws3.internet_2;fillColor=#D2D3D3;gradientColor=none;" parent="1" vertex="1">
          <mxGeometry x="620" y="207" width="79.5" height="54" as="geometry" />
        </mxCell>
        <mxCell id="HuIu8MXGCtXhuZYJzf6O-14" style="edgeStyle=orthogonalEdgeStyle;rounded=0;orthogonalLoop=1;jettySize=auto;html=1;exitX=0;exitY=0.7;exitDx=0;exitDy=0;exitPerimeter=0;entryX=1;entryY=0.5;entryDx=0;entryDy=0;entryPerimeter=0;endArrow=none;endFill=0;" parent="1" source="HuIu8MXGCtXhuZYJzf6O-12" target="HuIu8MXGCtXhuZYJzf6O-5" edge="1">
          <mxGeometry relative="1" as="geometry" />
        </mxCell>
        <mxCell id="HuIu8MXGCtXhuZYJzf6O-15" value="AWS Site-to-Site&lt;br&gt;VPN" style="sketch=0;points=[[0,0,0],[0.25,0,0],[0.5,0,0],[0.75,0,0],[1,0,0],[0,1,0],[0.25,1,0],[0.5,1,0],[0.75,1,0],[1,1,0],[0,0.25,0],[0,0.5,0],[0,0.75,0],[1,0.25,0],[1,0.5,0],[1,0.75,0]];outlineConnect=0;fontColor=#232F3E;fillColor=#8C4FFF;strokeColor=#ffffff;dashed=0;verticalLabelPosition=bottom;verticalAlign=top;align=center;html=1;fontSize=12;fontStyle=0;aspect=fixed;shape=mxgraph.aws4.resourceIcon;resIcon=mxgraph.aws4.site_to_site_vpn;" parent="1" vertex="1">
          <mxGeometry x="520" y="220" width="60" height="60" as="geometry" />
        </mxCell>
        <mxCell id="HuIu8MXGCtXhuZYJzf6O-10" value="" style="sketch=0;outlineConnect=0;fontColor=#232F3E;gradientColor=none;fillColor=#8C4FFF;strokeColor=none;dashed=0;verticalLabelPosition=bottom;verticalAlign=top;align=center;html=1;fontSize=12;fontStyle=0;aspect=fixed;pointerEvents=1;shape=mxgraph.aws4.customer_gateway;" parent="1" vertex="1">
          <mxGeometry x="780" y="219" width="51" height="51" as="geometry" />
        </mxCell>
        <mxCell id="HuIu8MXGCtXhuZYJzf6O-32" style="rounded=0;orthogonalLoop=1;jettySize=auto;html=1;exitX=0;exitY=0;exitDx=0;exitDy=0;" parent="1" source="HuIu8MXGCtXhuZYJzf6O-16" target="HuIu8MXGCtXhuZYJzf6O-10" edge="1">
          <mxGeometry relative="1" as="geometry" />
        </mxCell>
        <mxCell id="HuIu8MXGCtXhuZYJzf6O-33" style="rounded=0;orthogonalLoop=1;jettySize=auto;html=1;exitX=0;exitY=0.75;exitDx=0;exitDy=0;startArrow=classic;startFill=1;" parent="1" source="HuIu8MXGCtXhuZYJzf6O-17" target="HuIu8MXGCtXhuZYJzf6O-10" edge="1">
          <mxGeometry relative="1" as="geometry" />
        </mxCell>
      </root>
    </mxGraphModel>
  </diagram>
</mxfile>
